# xmcd
#
# Track frame offsets: 
#        150
#        33400
#        62537
#        96855
#        119540
#        121585
#        140215
#        155620
#        174845
#        192630
#        210955
#        225497
#        235292
#        256265
#        273750
#        298122
#        322250
#        328385
#
# Disc length: 4629 seconds
#
# Revision: 3
# Processed by: cddbd v1.5.2PL0 Copyright (c) Steve Scherf et al.
# Submitted via: ExactAudioCopyFreeDBPlugin 1.0
#
DISCID=0c121312
DTITLE=Earth, Wind and Fire - The Eternal Dance [box set]
DYEAR=1992
DGENRE=SMB
TTITLE0=Kalimba Story - Sing a Message to You
TTITLE1=Head to the Sky - Devotion
TTITLE2=Sun Goddess
TTITLE3=Mighty Mighty
TTITLE4=Interlude
TTITLE5=Can't Hide Love
TTITLE6=Sing a Song
TTITLE7=Sunshine
TTITLE8=Getaway
TTITLE9=Saturday Nite
TTITLE10=Spirit
TTITLE11=Ponta de Areia
TTITLE12=Fantasy
TTITLE13=Serpentine Fire
TTITLE14=I'll Write a Song for You
TTITLE15=Be Ever Wonderful
TTITLE16=Beijo
TTITLE17=Got to Get You Into My Life
EXTD=
EXTT0=
EXTT1=
EXTT2=
EXTT3=
EXTT4=
EXTT5=
EXTT6=
EXTT7=
EXTT8=
EXTT9=
EXTT10=
EXTT11=
EXTT12=
EXTT13=
EXTT14=
EXTT15=
EXTT16=
EXTT17=
PLAYORDER=
